Coordinates
version=1
nRows=6
nColumns=36
inDegrees=yes

Units are S.I. units (second, meters, Newtons, ...)
If the header above contains a line with 'inDegrees', this indicates whether rotational values are in degrees (yes) or radians (no).

endheader
time	pelvis_tilt	pelvis_list	pelvis_rotation	pelvis_tx	pelvis_ty	pelvis_tz	hip_flexion_r	hip_adduction_r	hip_rotation_r	knee_angle_r	knee_angle_r_beta	ankle_angle_r	subtalar_angle_r	mtp_angle_r	hip_flexion_l	hip_adduction_l	hip_rotation_l	knee_angle_l	knee_angle_l_beta	ankle_angle_l	subtalar_angle_l	mtp_angle_l	lumbar_extension	lumbar_bending	lumbar_rotation	arm_flex_r	arm_add_r	arm_rot_r	elbow_flex_r	pro_sup_r	arm_flex_l	arm_add_l	arm_rot_l	elbow_flex_l	pro_sup_l
      8.91666670	     -5.50122293	     -0.58057994	      6.06198742	      0.27569394	      0.68628289	      0.46680029	     55.86532844	    -15.08911937	     -0.71900208	     76.30206740	      1.33172230	     27.66668679	    -20.87628916	     -7.49999987	     55.03622733	    -16.06935303	     -4.49351841	     71.21763972	      1.24298230	     29.19008573	      5.18490649	     -7.49999987	    -25.38443268	     -5.21553439	      0.77859136	     98.35443551	      8.44654585	     75.47789619	    126.15243917	     95.49578750	     88.87786082	      5.71996658	     72.09606866	    124.07742627	     91.43754745
      8.93333330	     -6.01336979	     -0.58948893	      6.12426962	      0.27516494	      0.67482572	      0.46659699	     57.82597396	    -15.23032543	     -0.29052886	     78.47223270	      1.36959883	     28.26854357	    -21.06735828	     -7.49999987	     57.00818586	    -16.23087540	     -4.01681351	     73.27803704	      1.27894302	     30.32381509	      5.83947154	     -7.49999987	    -25.48432369	     -5.27441973	      0.99390883	     99.51856080	      7.12986182	     75.43127046	    125.49661133	     92.89798519	     89.35842444	      6.91514524	     73.06804342	    125.06565793	     88.95926093
      8.95000000	     -6.59240492	     -0.63146953	      5.89462401	      0.25799641	      0.66892593	      0.46657755	     60.39426653	    -15.00802003	      0.31620253	     80.17043616	      1.39923807	     28.37370467	    -21.27316890	     -7.49999987	     59.60069457	    -15.97200338	     -3.21262972	     75.36626407	      1.31538945	     30.68204250	      5.05695378	     -7.49999987	    -26.11170383	     -5.25851366	      1.68047516	    100.84743891	      5.85710473	     74.44001477	    125.24622725	     93.47782450	     92.21420993	      9.39561821	     77.07748888	    124.97472368	     89.88042873
      8.96666670	     -7.07881008	     -0.78088259	      5.81824486	      0.25260095	      0.66074471	      0.46423142	     62.66100299	    -14.99239726	      0.78581304	     81.77500867	      1.42724315	     28.73538041	    -21.04662362	     -7.49999987	     62.28970110	    -15.39607948	     -1.86794226	     77.69478172	      1.35602975	     30.82779607	      3.79967614	     -7.49999987	    -26.96425464	     -4.75665451	      2.55450757	    102.37031389	      4.99965986	     73.71848139	    125.34113972	     91.81653948	     94.29000034	     11.53902714	     78.70113200	    125.31700724	     88.65662305
      8.98333330	     -7.44773974	     -0.88786275	      5.63844234	      0.25964989	      0.66150613	      0.46057817	     63.51927330	    -15.02418440	      1.12606497	     82.23196179	      1.43521848	     28.65451518	    -20.96265922	     -7.49999987	     63.70793041	    -14.81822760	     -0.77735771	     79.37676629	      1.38538592	     31.10390490	      2.96292640	     -7.49999987	    -27.90916468	     -4.39934418	      2.30388107	    103.03836928	      5.24991162	     74.32196060	    125.97785619	     92.25863258	     94.65095472	     10.86780736	     79.68604642	    124.56416091	     89.03139928
      9.00000000	     -7.60974085	     -0.89443544	      5.58642868	      0.26281231	      0.65538414	      0.46649516	     64.23732429	    -15.00915450	      1.19968237	     83.05125825	      1.44951790	     28.66062136	    -21.21263705	     -7.49999987	     64.80332234	    -14.69077189	      0.00372451	     80.79322873	      1.41010785	     31.32090121	      2.46017467	     -7.49999987	    -28.62558010	     -4.14419621	      2.46631908	    103.23052970	      5.61879344	     75.14117680	    125.77721730	     92.47692709	     94.06907706	     11.22323480	     81.45343032	    124.89356208	     89.19759109
